<mxfile host="app.diagrams.net" agent="Mozilla/5.0 (Windows NT 10.0; Win64; x64) AppleWebKit/537.36 (KHTML, like Gecko) Chrome/138.0.0.0 Safari/537.36" version="28.0.6">
  <diagram name="Page-1" id="VUQ5yrR_nOYUEyf6M4Mq">
    <mxGraphModel dx="2151" dy="1831" grid="1" gridSize="10" guides="1" tooltips="1" connect="1" arrows="1" fold="1" page="1" pageScale="1" pageWidth="850" pageHeight="1100" math="0" shadow="0">
      <root>
        <mxCell id="0" />
        <mxCell id="1" parent="0" />
        <mxCell id="KLBg-SSJyhI748aDw7hr-13" value="" style="edgeStyle=orthogonalEdgeStyle;rounded=0;orthogonalLoop=1;jettySize=auto;html=1;" edge="1" parent="1" source="KLBg-SSJyhI748aDw7hr-1" target="KLBg-SSJyhI748aDw7hr-12">
          <mxGeometry relative="1" as="geometry" />
        </mxCell>
        <mxCell id="KLBg-SSJyhI748aDw7hr-16" style="edgeStyle=orthogonalEdgeStyle;rounded=0;orthogonalLoop=1;jettySize=auto;html=1;" edge="1" parent="1" source="KLBg-SSJyhI748aDw7hr-1" target="KLBg-SSJyhI748aDw7hr-15">
          <mxGeometry relative="1" as="geometry">
            <Array as="points">
              <mxPoint x="175" y="840" />
            </Array>
          </mxGeometry>
        </mxCell>
        <mxCell id="KLBg-SSJyhI748aDw7hr-1" value="Doctor" style="shape=umlActor;verticalLabelPosition=bottom;verticalAlign=top;html=1;outlineConnect=0;" vertex="1" parent="1">
          <mxGeometry x="160" y="460" width="30" height="60" as="geometry" />
        </mxCell>
        <mxCell id="KLBg-SSJyhI748aDw7hr-2" value="Admin" style="shape=umlActor;verticalLabelPosition=bottom;verticalAlign=top;html=1;outlineConnect=0;" vertex="1" parent="1">
          <mxGeometry x="10" y="270" width="30" height="60" as="geometry" />
        </mxCell>
        <mxCell id="KLBg-SSJyhI748aDw7hr-20" style="edgeStyle=orthogonalEdgeStyle;rounded=0;orthogonalLoop=1;jettySize=auto;html=1;jumpStyle=arc;" edge="1" parent="1" source="KLBg-SSJyhI748aDw7hr-3" target="KLBg-SSJyhI748aDw7hr-11">
          <mxGeometry relative="1" as="geometry">
            <Array as="points">
              <mxPoint x="125" y="420" />
            </Array>
          </mxGeometry>
        </mxCell>
        <mxCell id="KLBg-SSJyhI748aDw7hr-30" value="" style="edgeStyle=orthogonalEdgeStyle;rounded=0;orthogonalLoop=1;jettySize=auto;html=1;" edge="1" parent="1" source="KLBg-SSJyhI748aDw7hr-3" target="KLBg-SSJyhI748aDw7hr-29">
          <mxGeometry relative="1" as="geometry" />
        </mxCell>
        <mxCell id="KLBg-SSJyhI748aDw7hr-45" style="edgeStyle=orthogonalEdgeStyle;rounded=0;orthogonalLoop=1;jettySize=auto;html=1;entryX=0;entryY=0.5;entryDx=0;entryDy=0;jumpStyle=arc;" edge="1" parent="1" source="KLBg-SSJyhI748aDw7hr-3" target="KLBg-SSJyhI748aDw7hr-21">
          <mxGeometry relative="1" as="geometry">
            <Array as="points">
              <mxPoint x="220" y="160" />
              <mxPoint x="220" y="535" />
            </Array>
          </mxGeometry>
        </mxCell>
        <mxCell id="KLBg-SSJyhI748aDw7hr-50" style="edgeStyle=orthogonalEdgeStyle;rounded=0;orthogonalLoop=1;jettySize=auto;html=1;" edge="1" parent="1" source="KLBg-SSJyhI748aDw7hr-3" target="KLBg-SSJyhI748aDw7hr-2">
          <mxGeometry relative="1" as="geometry">
            <Array as="points">
              <mxPoint x="90" y="160" />
              <mxPoint x="90" y="300" />
            </Array>
          </mxGeometry>
        </mxCell>
        <mxCell id="KLBg-SSJyhI748aDw7hr-3" value="Customer" style="shape=umlActor;verticalLabelPosition=bottom;verticalAlign=top;html=1;outlineConnect=0;" vertex="1" parent="1">
          <mxGeometry x="110" y="130" width="30" height="60" as="geometry" />
        </mxCell>
        <mxCell id="KLBg-SSJyhI748aDw7hr-7" value="Register" style="ellipse;whiteSpace=wrap;html=1;" vertex="1" parent="1">
          <mxGeometry x="330" y="80" width="140" height="70" as="geometry" />
        </mxCell>
        <mxCell id="KLBg-SSJyhI748aDw7hr-8" value="Login" style="ellipse;whiteSpace=wrap;html=1;" vertex="1" parent="1">
          <mxGeometry x="330" y="180" width="140" height="70" as="geometry" />
        </mxCell>
        <mxCell id="KLBg-SSJyhI748aDw7hr-9" value="Lihat Data Dokter" style="ellipse;whiteSpace=wrap;html=1;" vertex="1" parent="1">
          <mxGeometry x="330" y="275" width="140" height="70" as="geometry" />
        </mxCell>
        <mxCell id="KLBg-SSJyhI748aDw7hr-28" value="" style="edgeStyle=orthogonalEdgeStyle;rounded=0;orthogonalLoop=1;jettySize=auto;html=1;strokeColor=default;dashed=1;dashPattern=8 8;jumpStyle=arc;" edge="1" parent="1" source="KLBg-SSJyhI748aDw7hr-11" target="KLBg-SSJyhI748aDw7hr-27">
          <mxGeometry relative="1" as="geometry">
            <Array as="points">
              <mxPoint x="400" y="360" />
            </Array>
          </mxGeometry>
        </mxCell>
        <mxCell id="KLBg-SSJyhI748aDw7hr-11" value="Buat appointment" style="ellipse;whiteSpace=wrap;html=1;" vertex="1" parent="1">
          <mxGeometry x="330" y="390" width="140" height="70" as="geometry" />
        </mxCell>
        <mxCell id="KLBg-SSJyhI748aDw7hr-12" value="- Jadwal Dokter&lt;div&gt;- Spesialis (THT, Ibu Anak)&lt;/div&gt;&lt;div&gt;- Pengalaman&lt;/div&gt;&lt;div&gt;- Harga&lt;/div&gt;&lt;div&gt;- Rating&lt;/div&gt;&lt;div&gt;- Gender&lt;/div&gt;&lt;div&gt;&lt;br&gt;&lt;/div&gt;" style="whiteSpace=wrap;html=1;verticalAlign=top;" vertex="1" parent="1">
          <mxGeometry x="-135" y="520" width="145" height="95" as="geometry" />
        </mxCell>
        <mxCell id="KLBg-SSJyhI748aDw7hr-15" value="Fitur aktif dan tidak pada dokter" style="ellipse;whiteSpace=wrap;html=1;" vertex="1" parent="1">
          <mxGeometry x="330" y="810" width="140" height="70" as="geometry" />
        </mxCell>
        <mxCell id="KLBg-SSJyhI748aDw7hr-21" value="Lakukan pembayaran" style="ellipse;whiteSpace=wrap;html=1;" vertex="1" parent="1">
          <mxGeometry x="330" y="500" width="140" height="70" as="geometry" />
        </mxCell>
        <mxCell id="KLBg-SSJyhI748aDw7hr-22" value="Pemilihan spesialis" style="ellipse;whiteSpace=wrap;html=1;" vertex="1" parent="1">
          <mxGeometry x="540" y="305" width="140" height="70" as="geometry" />
        </mxCell>
        <mxCell id="KLBg-SSJyhI748aDw7hr-24" value="Pemilihan waktu (hari, jam, dsb)" style="ellipse;whiteSpace=wrap;html=1;" vertex="1" parent="1">
          <mxGeometry x="560" y="450" width="140" height="70" as="geometry" />
        </mxCell>
        <mxCell id="KLBg-SSJyhI748aDw7hr-25" value="&amp;lt;&amp;lt;extend&amp;gt;&amp;gt;" style="edgeStyle=none;html=1;startArrow=open;endArrow=none;startSize=12;verticalAlign=bottom;dashed=1;labelBackgroundColor=none;rounded=0;" edge="1" parent="1" source="KLBg-SSJyhI748aDw7hr-22" target="KLBg-SSJyhI748aDw7hr-11">
          <mxGeometry width="160" relative="1" as="geometry">
            <mxPoint x="200" y="400" as="sourcePoint" />
            <mxPoint x="560" y="400" as="targetPoint" />
          </mxGeometry>
        </mxCell>
        <mxCell id="KLBg-SSJyhI748aDw7hr-26" value="&amp;lt;&amp;lt;extend&amp;gt;&amp;gt;" style="edgeStyle=none;html=1;startArrow=open;endArrow=none;startSize=12;verticalAlign=bottom;dashed=1;labelBackgroundColor=none;rounded=0;" edge="1" parent="1" source="KLBg-SSJyhI748aDw7hr-24" target="KLBg-SSJyhI748aDw7hr-11">
          <mxGeometry width="160" relative="1" as="geometry">
            <mxPoint x="580" y="410" as="sourcePoint" />
            <mxPoint x="526" y="387" as="targetPoint" />
          </mxGeometry>
        </mxCell>
        <mxCell id="KLBg-SSJyhI748aDw7hr-27" value="- Minimal 3 jam sebelum waktu appointment&lt;div&gt;- Harus menyertakan data berat badan, tensi&lt;/div&gt;" style="whiteSpace=wrap;html=1;" vertex="1" parent="1">
          <mxGeometry x="-270" y="330" width="260" height="60" as="geometry" />
        </mxCell>
        <mxCell id="KLBg-SSJyhI748aDw7hr-29" value="- Nama&lt;div&gt;- Gender&lt;/div&gt;&lt;div&gt;- Tinggi Badan&lt;/div&gt;&lt;div&gt;- Berat badan&lt;/div&gt;&lt;div&gt;- Golongan Darah&lt;/div&gt;" style="whiteSpace=wrap;html=1;verticalAlign=top;" vertex="1" parent="1">
          <mxGeometry x="140" y="-50" width="190" height="110" as="geometry" />
        </mxCell>
        <mxCell id="KLBg-SSJyhI748aDw7hr-40" value="" style="edgeStyle=orthogonalEdgeStyle;rounded=0;orthogonalLoop=1;jettySize=auto;html=1;" edge="1" parent="1" source="KLBg-SSJyhI748aDw7hr-31" target="KLBg-SSJyhI748aDw7hr-39">
          <mxGeometry relative="1" as="geometry" />
        </mxCell>
        <mxCell id="KLBg-SSJyhI748aDw7hr-31" value="API Body Mass Index" style="ellipse;whiteSpace=wrap;html=1;" vertex="1" parent="1">
          <mxGeometry x="330" y="710" width="140" height="70" as="geometry" />
        </mxCell>
        <mxCell id="KLBg-SSJyhI748aDw7hr-34" value="" style="edgeStyle=orthogonalEdgeStyle;rounded=0;orthogonalLoop=1;jettySize=auto;html=1;" edge="1" parent="1" source="KLBg-SSJyhI748aDw7hr-32" target="KLBg-SSJyhI748aDw7hr-33">
          <mxGeometry relative="1" as="geometry" />
        </mxCell>
        <mxCell id="KLBg-SSJyhI748aDw7hr-32" value="Ambil nomor antrian offline" style="ellipse;whiteSpace=wrap;html=1;" vertex="1" parent="1">
          <mxGeometry x="330" y="610" width="140" height="70" as="geometry" />
        </mxCell>
        <mxCell id="KLBg-SSJyhI748aDw7hr-33" value="- 2FA menggunakan email" style="whiteSpace=wrap;html=1;" vertex="1" parent="1">
          <mxGeometry x="560" y="615" width="180" height="60" as="geometry" />
        </mxCell>
        <mxCell id="KLBg-SSJyhI748aDw7hr-38" value="&amp;lt;&amp;lt;include&amp;gt;&amp;gt;" style="html=1;verticalAlign=bottom;labelBackgroundColor=none;endArrow=open;endFill=0;dashed=1;rounded=0;edgeStyle=orthogonalEdgeStyle;jumpStyle=arc;" edge="1" parent="1" source="KLBg-SSJyhI748aDw7hr-32" target="KLBg-SSJyhI748aDw7hr-8">
          <mxGeometry x="0.386" width="160" relative="1" as="geometry">
            <mxPoint x="310" y="440" as="sourcePoint" />
            <mxPoint x="470" y="440" as="targetPoint" />
            <Array as="points">
              <mxPoint x="260" y="645" />
              <mxPoint x="260" y="215" />
            </Array>
            <mxPoint as="offset" />
          </mxGeometry>
        </mxCell>
        <mxCell id="KLBg-SSJyhI748aDw7hr-39" value="&lt;div&gt;- Tidak ada batas rate limiter untuk&lt;/div&gt;- Rate limiter untuk guest" style="whiteSpace=wrap;html=1;" vertex="1" parent="1">
          <mxGeometry x="560" y="715" width="120" height="60" as="geometry" />
        </mxCell>
        <mxCell id="KLBg-SSJyhI748aDw7hr-43" value="Aturan Dasar:&lt;div style=&quot;&quot;&gt;- Umum:&amp;nbsp;&lt;/div&gt;&lt;blockquote style=&quot;margin: 0 0 0 40px; border: none; padding: 0px;&quot;&gt;&lt;div style=&quot;&quot;&gt;- Waktu konsultasi 30 menit&lt;/div&gt;&lt;/blockquote&gt;&lt;div&gt;- Spesialis&lt;/div&gt;&lt;div&gt;&lt;blockquote style=&quot;margin: 0 0 0 40px; border: none; padding: 0px;&quot;&gt;- Waktu 60 menit&lt;br&gt;&lt;/blockquote&gt;- Harga Dokter umum dan spesialis berbeda.&lt;br&gt;&lt;blockquote style=&quot;margin: 0 0 0 40px; border: none; padding: 0px;&quot;&gt;&lt;div&gt;&lt;br&gt;&lt;/div&gt;&lt;/blockquote&gt;Task Scheduling:&lt;/div&gt;&lt;div&gt;- Notifikasi pengingat untuk konsultasi offline 1 jam sebelum appointment.&lt;/div&gt;" style="rounded=0;whiteSpace=wrap;html=1;align=left;" vertex="1" parent="1">
          <mxGeometry x="-570" y="35" width="270" height="190" as="geometry" />
        </mxCell>
        <mxCell id="KLBg-SSJyhI748aDw7hr-44" value="&amp;lt;&amp;lt;include&amp;gt;&amp;gt;" style="html=1;verticalAlign=bottom;labelBackgroundColor=none;endArrow=open;endFill=0;dashed=1;rounded=0;" edge="1" parent="1" source="KLBg-SSJyhI748aDw7hr-11" target="KLBg-SSJyhI748aDw7hr-21">
          <mxGeometry x="0.5" width="160" relative="1" as="geometry">
            <mxPoint x="230" y="520" as="sourcePoint" />
            <mxPoint x="390" y="520" as="targetPoint" />
            <mxPoint as="offset" />
          </mxGeometry>
        </mxCell>
        <mxCell id="KLBg-SSJyhI748aDw7hr-46" value="" style="group" vertex="1" connectable="0" parent="1">
          <mxGeometry x="-290" y="20" width="360" height="220" as="geometry" />
        </mxCell>
        <mxCell id="KLBg-SSJyhI748aDw7hr-17" value="" style="rounded=0;whiteSpace=wrap;html=1;" vertex="1" parent="KLBg-SSJyhI748aDw7hr-46">
          <mxGeometry width="360" height="220" as="geometry" />
        </mxCell>
        <mxCell id="KLBg-SSJyhI748aDw7hr-14" value="Chat dengan dokter" style="ellipse;whiteSpace=wrap;html=1;" vertex="1" parent="KLBg-SSJyhI748aDw7hr-46">
          <mxGeometry x="190" y="40" width="140" height="70" as="geometry" />
        </mxCell>
        <mxCell id="KLBg-SSJyhI748aDw7hr-18" value="Optional Feature" style="text;html=1;align=center;verticalAlign=middle;whiteSpace=wrap;rounded=0;" vertex="1" parent="KLBg-SSJyhI748aDw7hr-46">
          <mxGeometry x="10" y="10" width="140" height="30" as="geometry" />
        </mxCell>
        <mxCell id="KLBg-SSJyhI748aDw7hr-19" value="Resep obat" style="ellipse;whiteSpace=wrap;html=1;" vertex="1" parent="KLBg-SSJyhI748aDw7hr-46">
          <mxGeometry x="190" y="130" width="140" height="70" as="geometry" />
        </mxCell>
        <mxCell id="KLBg-SSJyhI748aDw7hr-35" value="SubAccount" style="ellipse;whiteSpace=wrap;html=1;" vertex="1" parent="KLBg-SSJyhI748aDw7hr-46">
          <mxGeometry x="30" y="130" width="140" height="70" as="geometry" />
        </mxCell>
        <mxCell id="KLBg-SSJyhI748aDw7hr-51" style="edgeStyle=orthogonalEdgeStyle;rounded=0;orthogonalLoop=1;jettySize=auto;html=1;" edge="1" parent="1" source="KLBg-SSJyhI748aDw7hr-1" target="KLBg-SSJyhI748aDw7hr-2">
          <mxGeometry relative="1" as="geometry">
            <Array as="points">
              <mxPoint x="90" y="490" />
              <mxPoint x="90" y="300" />
            </Array>
          </mxGeometry>
        </mxCell>
      </root>
    </mxGraphModel>
  </diagram>
</mxfile>
